<svg width="937" height="364" viewBox="0 0 937 364" fill="none" xmlns="http://www.w3.org/2000/svg">
<path d="M0 362.66V115.44H39V328.19H171.67V362.66H0Z" fill="white"/>
<path d="M203.35 362.66V115.44H242.35V362.66H203.35Z" fill="white"/>
<path d="M492.35 298.94C492.35 308.92 490.32 317.86 486.26 325.75C482.2 333.64 476.74 340.32 469.89 345.77C463.04 351.23 454.97 355.41 445.69 358.31C436.4 361.21 426.54 362.66 416.09 362.66H298.05V115.44H425.5C434.08 115.44 441.86 117.3 448.83 121.01C455.79 124.73 461.71 129.54 466.59 135.46C471.46 141.38 475.24 148.11 477.91 155.65C480.58 163.2 481.91 170.8 481.91 178.46C481.91 190.53 478.83 201.85 472.68 212.41C466.53 222.98 457.76 230.81 446.39 235.91C460.55 240.09 471.75 247.69 479.99 258.72C488.23 269.75 492.35 283.15 492.35 298.94ZM337.05 149.21V221.98H408.78C413.65 221.98 418.12 221.06 422.19 219.2C426.25 217.34 429.85 214.85 432.98 211.71C436.11 208.58 438.55 204.81 440.29 200.39C442.03 195.98 442.9 191.11 442.9 185.77C442.9 175.09 439.88 166.33 433.85 159.48C427.81 152.64 420.15 149.21 410.87 149.21H337.05ZM452.31 291.62C452.31 286.52 451.44 281.64 449.7 277C447.96 272.36 445.64 268.29 442.74 264.81C439.83 261.33 436.3 258.54 432.12 256.45C427.94 254.36 423.41 253.32 418.54 253.32H337.06V328.88H416.1C421.2 328.88 425.96 327.9 430.38 325.92C434.79 323.95 438.62 321.28 441.87 317.91C445.12 314.55 447.67 310.6 449.53 306.07C451.38 301.55 452.31 296.73 452.31 291.62Z" fill="white"/>
<path d="M743.05 362.66V115.44H850.64C861.78 115.44 872.05 117.76 881.46 122.4C890.86 127.04 898.92 133.14 905.66 140.68C912.39 148.22 917.67 156.82 921.5 166.45C925.33 176.09 927.25 185.89 927.25 195.87C927.25 204.23 926.09 212.24 923.77 219.9C921.45 227.56 918.2 234.64 914.02 241.14C909.84 247.64 904.73 253.27 898.7 258.03C892.66 262.79 886.04 266.33 878.85 268.65L937 362.67H892.78L839.16 276.66H782.06V362.67H743.05V362.66ZM782.05 242.18H850.3C855.87 242.18 860.92 240.96 865.45 238.52C869.98 236.08 873.86 232.72 877.11 228.42C880.36 224.13 882.91 219.19 884.77 213.62C886.62 208.05 887.56 202.13 887.56 195.86C887.56 189.59 886.45 183.67 884.25 178.1C882.04 172.53 879.14 167.65 875.54 163.48C871.94 159.3 867.76 155.99 863 153.56C858.24 151.12 853.3 149.9 848.2 149.9H782.04V242.18H782.05Z" fill="white"/>
<path d="M698.31 115.38H532.4V150.2H698.31V115.38Z" fill="#0B6E99"/>
<path d="M698.31 217.79H532.4V252.61H698.31V217.79Z" fill="#0B6E99"/>
<path d="M698.31 328.4H532.4V363.22H698.31V328.4Z" fill="#0B6E99"/>
<path d="M322.65 49.95C317.03 56.28 310.51 59.44 303.09 59.44C299.16 59.44 295.52 58.59 292.16 56.9C288.8 55.21 285.93 52.97 283.52 50.19C281.12 47.41 279.24 44.24 277.87 40.7C276.51 37.15 275.82 33.55 275.82 29.9C275.82 26.08 276.49 22.4 277.83 18.85C279.17 15.3 281.02 12.17 283.4 9.43999C285.77 6.70999 288.6 4.53999 291.87 2.92999C295.15 1.31999 298.72 0.519989 302.59 0.519989C305.48 0.519989 308.09 0.829988 310.41 1.45999C312.73 2.08999 314.8 2.95999 316.63 4.07999C318.46 5.19999 320.04 6.52999 321.37 8.08999C322.71 9.63999 323.84 11.35 324.77 13.21L321.33 15.26C319.37 11.44 316.76 8.66999 313.51 6.94999C310.26 5.22999 306.6 4.36999 302.5 4.36999C299.06 4.36999 295.95 5.10999 293.17 6.57999C290.39 8.04999 288.01 9.98999 286.05 12.39C284.09 14.79 282.59 17.52 281.55 20.57C280.51 23.63 280 26.76 280 29.98C280 33.42 280.6 36.68 281.8 39.76C283 42.84 284.65 45.56 286.75 47.9C288.85 50.25 291.32 52.12 294.16 53.51C297 54.9 300.05 55.6 303.33 55.6C306.87 55.6 310.24 54.78 313.44 53.15C316.63 51.51 319.7 48.92 322.65 45.37V34.15H309.47V30.8H326.25V59.04H322.65V49.95Z" fill="white"/>
<path d="M354.9 59.03V0.919998H379.04C381.5 0.919998 383.76 1.44 385.83 2.47C387.9 3.51 389.69 4.88 391.19 6.6C392.69 8.32 393.86 10.26 394.71 12.41C395.56 14.57 395.98 16.74 395.98 18.92C395.98 21.05 395.65 23.11 395 25.1C394.34 27.09 393.42 28.88 392.22 30.46C391.02 32.04 389.57 33.35 387.88 34.39C386.19 35.43 384.34 36.11 382.32 36.44L396.81 59.03H391.98L377.9 37.1H359.07V59.04H354.9V59.03ZM359.07 33.25H379.45C381.3 33.25 382.99 32.84 384.53 32.02C386.06 31.2 387.36 30.12 388.46 28.79C389.55 27.45 390.38 25.92 390.95 24.21C391.53 22.49 391.81 20.73 391.81 18.93C391.81 17.08 391.47 15.29 390.79 13.57C390.11 11.85 389.18 10.34 388.01 9.03C386.84 7.72 385.47 6.67 383.92 5.88C382.37 5.09 380.69 4.69 378.89 4.69H359.08V33.25H359.07Z" fill="white"/>
<path d="M447.71 55.6C451.64 55.6 454.9 54.86 457.49 53.39C460.08 51.92 462.13 49.98 463.63 47.58C465.13 45.18 466.19 42.45 466.82 39.4C467.45 36.34 467.76 33.26 467.76 30.15V0.919998H471.93V30.14C471.93 34.02 471.51 37.73 470.66 41.27C469.81 44.82 468.43 47.94 466.53 50.64C464.62 53.34 462.13 55.48 459.08 57.07C456.02 58.65 452.26 59.44 447.79 59.44C443.15 59.44 439.28 58.61 436.17 56.94C433.06 55.28 430.56 53.07 428.68 50.31C426.8 47.55 425.46 44.43 424.67 40.94C423.88 37.45 423.48 33.85 423.48 30.14V0.919998H427.66V30.14C427.66 33.36 427.97 36.5 428.6 39.55C429.23 42.61 430.32 45.32 431.87 47.69C433.42 50.06 435.49 51.97 438.05 53.42C440.62 54.87 443.84 55.6 447.71 55.6Z" fill="white"/>
<path d="M502.63 59.03V0.919998H526.53C528.98 0.919998 531.25 1.44 533.32 2.47C535.39 3.51 537.18 4.88 538.68 6.6C540.18 8.32 541.35 10.26 542.2 12.41C543.04 14.57 543.47 16.74 543.47 18.92C543.47 21.27 543.07 23.53 542.28 25.71C541.49 27.89 540.37 29.83 538.93 31.52C537.48 33.21 535.75 34.56 533.73 35.57C531.71 36.58 529.47 37.08 527.02 37.08H506.8V59.02H502.63V59.03ZM506.8 33.25H526.85C528.76 33.25 530.48 32.86 532.01 32.06C533.54 31.27 534.84 30.21 535.9 28.87C536.96 27.53 537.78 26.01 538.35 24.29C538.93 22.57 539.21 20.78 539.21 18.93C539.21 17.02 538.87 15.21 538.19 13.49C537.51 11.77 536.58 10.26 535.41 8.95C534.24 7.64 532.87 6.6 531.32 5.84C529.77 5.08 528.11 4.69 526.37 4.69H506.8V33.25Z" fill="white"/>
<path d="M592.99 59.44C588.95 59.44 585.27 58.59 581.94 56.9C578.61 55.21 575.75 53 573.35 50.27C570.95 47.54 569.09 44.4 567.78 40.86C566.47 37.31 565.81 33.69 565.81 29.97C565.81 26.1 566.51 22.39 567.9 18.84C569.29 15.29 571.2 12.16 573.63 9.43C576.06 6.7 578.94 4.52999 582.27 2.91999C585.6 1.30999 589.2 0.509995 593.07 0.509995C597.11 0.509995 600.81 1.37 604.16 3.09C607.52 4.81 610.38 7.06 612.76 9.84C615.13 12.62 616.97 15.77 618.28 19.29C619.59 22.81 620.25 26.37 620.25 29.97C620.25 33.9 619.55 37.64 618.16 41.18C616.77 44.73 614.86 47.85 612.43 50.55C610 53.25 607.12 55.41 603.79 57.02C600.46 58.64 596.86 59.44 592.99 59.44ZM569.99 29.98C569.99 33.31 570.55 36.52 571.67 39.6C572.79 42.68 574.37 45.41 576.42 47.78C578.47 50.15 580.9 52.05 583.74 53.47C586.58 54.89 589.69 55.6 593.07 55.6C596.56 55.6 599.71 54.86 602.53 53.39C605.34 51.92 607.74 49.97 609.73 47.54C611.72 45.11 613.26 42.37 614.35 39.31C615.44 36.25 615.99 33.14 615.99 29.98C615.99 26.65 615.41 23.45 614.27 20.36C613.12 17.28 611.52 14.55 609.48 12.18C607.43 9.81 605.02 7.91 602.24 6.49C599.46 5.07 596.4 4.36 593.07 4.36C589.58 4.36 586.41 5.1 583.58 6.57C580.74 8.04 578.31 9.98999 576.29 12.42C574.27 14.85 572.71 17.59 571.62 20.65C570.53 23.7 569.99 26.81 569.99 29.98Z" fill="white"/>
</svg>
